<svg xmlns="http://www.w3.org/2000/svg" viewBox="0 0 64 64">
  <!-- Full bleed background for maskable PWA icon -->
  <rect width="64" height="64" fill="#152040"/>
  <!-- Left mountain -->
  <polygon points="1,52 21,16 49,52" fill="white" fill-opacity="0.95"/>
  <polygon points="21,16 49,52 35,52" fill="#0d1a30" fill-opacity="0.18"/>
  <polygon points="16,27 21,16 26,27" fill="white"/>
  <!-- Right mountain -->
  <polygon points="17,52 44,20 63,52" fill="white" fill-opacity="0.88"/>
  <polygon points="44,20 17,52 31,52" fill="#0d1a30" fill-opacity="0.18"/>
  <polygon points="38,32 44,20 50,32" fill="white"/>
  <!-- Road -->
  <polygon points="21,60 43,60 36,43 28,43" fill="#f97316"/>
  <rect x="31" y="45" width="2" height="3.5" rx="1" fill="white" fill-opacity="0.9"/>
  <rect x="31" y="50" width="2" height="3.5" rx="1" fill="white" fill-opacity="0.9"/>
  <rect x="31" y="55" width="2" height="3.5" rx="1" fill="white" fill-opacity="0.9"/>
  <!-- Pin -->
  <path d="M32,44 C23,36.5 19,29.5 19,23 A13,13 0 1,1 45,23 C45,29.5 41,36.5 32,44 Z" fill="#f97316"/>
  <path d="M24,17 C26,13 30,11 34,11" stroke="white" stroke-width="1.5" stroke-linecap="round" stroke-opacity="0.4"/>
  <circle cx="32" cy="22.5" r="5.5" fill="#152040"/>
</svg>
